<svg id="Layer_1" data-name="Layer 1" xmlns="http://www.w3.org/2000/svg" viewBox="0 0 224.29 225">
  <defs>
    <style>
      .cls-1 {
        fill: #fff;
      }

      .cls-1, .cls-2 {
        stroke: #ccc;
        stroke-miterlimit: 10;
        stroke-width: 8px;
      }

      .cls-2 {
        fill: none;
      }
    </style>
  </defs>
  <title>1</title>
  <circle class="cls-1" cx="112" cy="113" r="108"/>
  <circle class="cls-1" cx="112.29" cy="112" r="108"/>
  <path class="cls-1" d="M697,454.71c0,7.58-4.61,13.29-10.29,13.29H599.29c-5.68,0-10.29-5.71-10.29-13.29v-3.42c0-7.58,4.61-13.29,10.29-13.29h87.42c5.68,0,10.29,5.71,10.29,13.29Z" transform="translate(-532 -388)"/>
  <line class="cls-2" x1="96" y1="65" x2="150" y2="65"/>
  <path class="cls-1" d="M697,502.71c0,7.58-4.61,13.29-10.29,13.29H599.29c-5.68,0-10.29-5.71-10.29-13.29v-3.42c0-7.58,4.61-13.29,10.29-13.29h87.42c5.68,0,10.29,5.71,10.29,13.29Z" transform="translate(-532 -388)"/>
  <line class="cls-2" x1="96" y1="113" x2="150" y2="113"/>
  <path class="cls-1" d="M697,550.29c0,7.57-4.61,13.71-10.29,13.71H599.29c-5.68,0-10.29-6.14-10.29-13.71v-3.43c0-7.58,4.61-13.86,10.29-13.86h87.42c5.68,0,10.29,6.28,10.29,13.86Z" transform="translate(-532 -388)"/>
  <line class="cls-2" x1="96" y1="161" x2="150" y2="161"/>
</svg>
